<svg width="84" height="84" viewBox="0 0 84 84" fill="none" xmlns="http://www.w3.org/2000/svg">
<rect width="84" height="84" rx="16" fill="white"/>
<path d="M13 20.7433C13 16.4668 16.4668 13 20.7433 13H63.3312C67.6077 13 71.0745 16.4668 71.0745 20.7433V63.3312C71.0745 67.6077 67.6077 71.0745 63.3313 71.0745H20.7433C16.4668 71.0745 13 67.6077 13 63.3313V20.7433Z" fill="#2DB3FF"/>
<mask id="path-3-inside-1_245_613" fill="white">
<path fill-rule="evenodd" clip-rule="evenodd" d="M37.2353 27.7802C37.147 27.8716 37.097 27.9791 37.0964 28.1143V29.0562C37.0964 29.8352 36.4649 30.4667 35.6859 30.4667C34.9069 30.4667 34.2754 29.8352 34.2754 29.0562V28.1143C34.2736 27.2083 34.6458 26.3775 35.2389 25.7856C35.83 25.1913 36.6622 24.8197 37.5669 24.8203H46.5053C47.4095 24.8197 48.2422 25.1913 48.8334 25.7856C49.4271 26.3775 49.7982 27.2084 49.7975 28.1143V29.0555C49.7975 29.8349 49.1657 30.4667 48.3864 30.4667C47.607 30.4667 46.9752 29.8349 46.9752 29.0555V28.1143C46.9747 27.9791 46.9252 27.8716 46.8376 27.7802C46.7481 27.6926 46.6392 27.6438 46.5053 27.6425H37.5669C37.433 27.6438 37.3248 27.6926 37.2353 27.7802ZM25.0027 33.3008H59.07C60.8881 33.3008 62.3621 34.7755 62.3621 36.5936V40.2697C62.3621 40.7424 62.0311 41.1505 61.5686 41.2481L46.6855 44.3889C46.0604 44.5209 45.4723 44.044 45.4723 43.4051C45.4723 42.8498 45.0222 42.3996 44.4668 42.3996H39.509C38.9536 42.3996 38.5034 42.8498 38.5034 43.4052C38.5034 44.044 37.9154 44.521 37.2902 44.3891L22.5036 41.2706C22.041 41.173 21.71 40.7649 21.71 40.2921V36.5936C21.71 34.7755 23.184 33.3008 25.0027 33.3008ZM42.9862 51.6898C44.3594 51.6898 45.4726 50.5766 45.4726 49.2034C45.4726 48.0171 46.3106 46.996 47.4741 46.7647L60.0062 44.2728C60.6246 44.1498 61.2012 44.623 61.2012 45.2536V57.3018C61.2012 59.1199 59.7271 60.5945 57.9091 60.5945H26.1635C24.3455 60.5945 22.8721 59.1199 22.8721 57.3018V45.2764C22.8721 44.6459 23.4484 44.1727 24.0669 44.2956L36.5018 46.7652C37.6654 46.9963 38.5036 48.0173 38.5036 49.2037C38.5036 50.5767 39.6167 51.6898 40.9898 51.6898H42.9862ZM43.7293 48.2051V45.8827C43.7293 44.9206 42.9493 44.1406 41.9872 44.1406C41.0251 44.1406 40.2451 44.9206 40.2451 45.8827V48.2051C40.2451 49.1673 41.0251 49.9472 41.9872 49.9472C42.9493 49.9472 43.7293 49.1673 43.7293 48.2051Z"/>
</mask>
<path fill-rule="evenodd" clip-rule="evenodd" d="M37.2353 27.7802C37.147 27.8716 37.097 27.9791 37.0964 28.1143V29.0562C37.0964 29.8352 36.4649 30.4667 35.6859 30.4667C34.9069 30.4667 34.2754 29.8352 34.2754 29.0562V28.1143C34.2736 27.2083 34.6458 26.3775 35.2389 25.7856C35.83 25.1913 36.6622 24.8197 37.5669 24.8203H46.5053C47.4095 24.8197 48.2422 25.1913 48.8334 25.7856C49.4271 26.3775 49.7982 27.2084 49.7975 28.1143V29.0555C49.7975 29.8349 49.1657 30.4667 48.3864 30.4667C47.607 30.4667 46.9752 29.8349 46.9752 29.0555V28.1143C46.9747 27.9791 46.9252 27.8716 46.8376 27.7802C46.7481 27.6926 46.6392 27.6438 46.5053 27.6425H37.5669C37.433 27.6438 37.3248 27.6926 37.2353 27.7802ZM25.0027 33.3008H59.07C60.8881 33.3008 62.3621 34.7755 62.3621 36.5936V40.2697C62.3621 40.7424 62.0311 41.1505 61.5686 41.2481L46.6855 44.3889C46.0604 44.5209 45.4723 44.044 45.4723 43.4051C45.4723 42.8498 45.0222 42.3996 44.4668 42.3996H39.509C38.9536 42.3996 38.5034 42.8498 38.5034 43.4052C38.5034 44.044 37.9154 44.521 37.2902 44.3891L22.5036 41.2706C22.041 41.173 21.71 40.7649 21.71 40.2921V36.5936C21.71 34.7755 23.184 33.3008 25.0027 33.3008ZM42.9862 51.6898C44.3594 51.6898 45.4726 50.5766 45.4726 49.2034C45.4726 48.0171 46.3106 46.996 47.4741 46.7647L60.0062 44.2728C60.6246 44.1498 61.2012 44.623 61.2012 45.2536V57.3018C61.2012 59.1199 59.7271 60.5945 57.9091 60.5945H26.1635C24.3455 60.5945 22.8721 59.1199 22.8721 57.3018V45.2764C22.8721 44.6459 23.4484 44.1727 24.0669 44.2956L36.5018 46.7652C37.6654 46.9963 38.5036 48.0173 38.5036 49.2037C38.5036 50.5767 39.6167 51.6898 40.9898 51.6898H42.9862ZM43.7293 48.2051V45.8827C43.7293 44.9206 42.9493 44.1406 41.9872 44.1406C41.0251 44.1406 40.2451 44.9206 40.2451 45.8827V48.2051C40.2451 49.1673 41.0251 49.9472 41.9872 49.9472C42.9493 49.9472 43.7293 49.1673 43.7293 48.2051Z" fill="url(#paint0_radial_245_613)"/>
<path d="M37.0964 28.1143L36.7964 28.1129V28.1143H37.0964ZM37.2353 27.7802L37.0254 27.5657L37.0195 27.5718L37.2353 27.7802ZM34.2754 28.1143L34.5754 28.1143L34.5754 28.1137L34.2754 28.1143ZM35.2389 25.7856L35.4508 25.998L35.4516 25.9972L35.2389 25.7856ZM37.5669 24.8203L37.5667 25.1203H37.5669V24.8203ZM46.5053 24.8203L46.5053 25.1203L46.5056 25.1203L46.5053 24.8203ZM48.8334 25.7856L48.6207 25.9972L48.6216 25.9981L48.8334 25.7856ZM49.7975 28.1143L49.4975 28.1141V28.1143H49.7975ZM46.9752 28.1143H47.2752L47.2752 28.1131L46.9752 28.1143ZM46.8376 27.7802L47.0543 27.5725L47.0475 27.5658L46.8376 27.7802ZM46.5053 27.6425L46.5082 27.3425H46.5053V27.6425ZM37.5669 27.6425V27.3425L37.564 27.3426L37.5669 27.6425ZM61.5686 41.2481L61.5067 40.9546L61.5067 40.9546L61.5686 41.2481ZM46.6855 44.3889L46.6236 44.0954L46.6235 44.0954L46.6855 44.3889ZM37.2902 44.3891L37.2283 44.6827L37.2283 44.6827L37.2902 44.3891ZM22.5036 41.2706L22.4417 41.5641L22.4417 41.5641L22.5036 41.2706ZM47.4741 46.7647L47.5326 47.0589L47.5326 47.0589L47.4741 46.7647ZM60.0062 44.2728L59.9477 43.9785L59.9477 43.9785L60.0062 44.2728ZM24.0669 44.2956L24.1253 44.0013L24.1253 44.0013L24.0669 44.2956ZM36.5018 46.7652L36.4433 47.0594L36.4433 47.0594L36.5018 46.7652ZM37.3964 28.1157C37.3966 28.0654 37.411 28.0301 37.4511 27.9887L37.0195 27.5718C36.883 27.7131 36.7974 27.8929 36.7964 28.1129L37.3964 28.1157ZM37.3964 29.0562V28.1143H36.7964V29.0562H37.3964ZM35.6859 30.7667C36.6305 30.7667 37.3964 30.0009 37.3964 29.0562H36.7964C36.7964 29.6695 36.2992 30.1667 35.6859 30.1667V30.7667ZM33.9754 29.0562C33.9754 30.0009 34.7412 30.7667 35.6859 30.7667V30.1667C35.0726 30.1667 34.5754 29.6695 34.5754 29.0562H33.9754ZM33.9754 28.1143V29.0562H34.5754V28.1143H33.9754ZM35.027 25.5733C34.3797 26.2192 33.9734 27.1257 33.9754 28.1149L34.5754 28.1137C34.5737 27.2909 34.9118 26.5358 35.4508 25.998L35.027 25.5733ZM37.5671 24.5203C36.5797 24.5196 35.6717 24.9252 35.0262 25.5741L35.4516 25.9972C35.9884 25.4575 36.7447 25.1197 37.5667 25.1203L37.5671 24.5203ZM46.5053 24.5203H37.5669V25.1203H46.5053V24.5203ZM49.0461 25.5741C48.4005 24.9251 47.492 24.5196 46.5051 24.5203L46.5056 25.1203C47.327 25.1197 48.0839 25.4576 48.6207 25.9972L49.0461 25.5741ZM50.0975 28.1145C50.0982 27.1259 49.6934 26.2193 49.0452 25.5732L48.6216 25.9981C49.1609 26.5357 49.4981 27.2908 49.4975 28.1141L50.0975 28.1145ZM50.0975 29.0555V28.1143H49.4975V29.0555H50.0975ZM48.3864 30.7667C49.3314 30.7667 50.0975 30.0006 50.0975 29.0555H49.4975C49.4975 29.6692 49.0001 30.1667 48.3864 30.1667V30.7667ZM46.6752 29.0555C46.6752 30.0006 47.4413 30.7667 48.3864 30.7667V30.1667C47.7727 30.1667 47.2752 29.6692 47.2752 29.0555H46.6752ZM46.6752 28.1143V29.0555H47.2752V28.1143H46.6752ZM46.621 27.9878C46.6604 28.0289 46.675 28.0643 46.6752 28.1156L47.2752 28.1131C47.2743 27.894 47.19 27.7143 47.0542 27.5727L46.621 27.9878ZM46.5025 27.9425C46.5556 27.943 46.5912 27.9588 46.6278 27.9946L47.0475 27.5658C46.9051 27.4265 46.7229 27.3446 46.5082 27.3426L46.5025 27.9425ZM37.5669 27.9425H46.5053V27.3425H37.5669V27.9425ZM37.4451 27.9946C37.4821 27.9585 37.5172 27.943 37.5697 27.9425L37.564 27.3426C37.3489 27.3446 37.1675 27.4268 37.0255 27.5658L37.4451 27.9946ZM59.07 33.0008H25.0027V33.6008H59.07V33.0008ZM62.6621 36.5936C62.6621 34.6099 61.0539 33.0008 59.07 33.0008V33.6008C60.7223 33.6008 62.0621 34.9411 62.0621 36.5936H62.6621ZM62.6621 40.2697V36.5936H62.0621V40.2697H62.6621ZM61.6306 41.5417C62.2318 41.4148 62.6621 40.8842 62.6621 40.2697H62.0621C62.0621 40.6006 61.8304 40.8863 61.5067 40.9546L61.6306 41.5417ZM46.7474 44.6825L61.6306 41.5417L61.5067 40.9546L46.6236 44.0954L46.7474 44.6825ZM45.1723 43.4051C45.1723 44.2346 45.9358 44.8538 46.7474 44.6825L46.6235 44.0954C46.1849 44.188 45.7723 43.8534 45.7723 43.4051H45.1723ZM44.4668 42.6996C44.8565 42.6996 45.1723 43.0154 45.1723 43.4051H45.7723C45.7723 42.6841 45.1878 42.0996 44.4668 42.0996V42.6996ZM39.509 42.6996H44.4668V42.0996H39.509V42.6996ZM38.8034 43.4052C38.8034 43.0155 39.1193 42.6996 39.509 42.6996V42.0996C38.7879 42.0996 38.2034 42.6841 38.2034 43.4052H38.8034ZM37.2283 44.6827C38.0399 44.8538 38.8034 44.2346 38.8034 43.4052H38.2034C38.2034 43.8534 37.7908 44.1881 37.3521 44.0956L37.2283 44.6827ZM22.4417 41.5641L37.2283 44.6827L37.3521 44.0956L22.5655 40.9771L22.4417 41.5641ZM21.41 40.2921C21.41 40.9067 21.8403 41.4373 22.4417 41.5641L22.5655 40.9771C22.2417 40.9088 22.01 40.6231 22.01 40.2921H21.41ZM21.41 36.5936V40.2921H22.01V36.5936H21.41ZM25.0027 33.0008C23.0183 33.0008 21.41 34.6098 21.41 36.5936H22.01C22.01 34.9411 23.3497 33.6008 25.0027 33.6008V33.0008ZM45.1726 49.2034C45.1726 50.4109 44.1937 51.3898 42.9862 51.3898V51.9898C44.5251 51.9898 45.7726 50.7423 45.7726 49.2034H45.1726ZM47.4156 46.4704C46.1117 46.7297 45.1726 47.874 45.1726 49.2034H45.7726C45.7726 48.1602 46.5095 47.2624 47.5326 47.0589L47.4156 46.4704ZM59.9477 43.9785L47.4156 46.4704L47.5326 47.0589L60.0647 44.567L59.9477 43.9785ZM61.5012 45.2536C61.5012 44.4338 60.7517 43.8187 59.9477 43.9785L60.0647 44.567C60.4976 44.4809 60.9012 44.8122 60.9012 45.2536H61.5012ZM61.5012 57.3018V45.2536H60.9012V57.3018H61.5012ZM57.9091 60.8945C59.8929 60.8945 61.5012 59.2855 61.5012 57.3018H60.9012C60.9012 58.9543 59.5614 60.2945 57.9091 60.2945V60.8945ZM26.1635 60.8945H57.9091V60.2945H26.1635V60.8945ZM22.5721 57.3018C22.5721 59.2854 24.1796 60.8945 26.1635 60.8945V60.2945C24.5113 60.2945 23.1721 58.9543 23.1721 57.3018H22.5721ZM22.5721 45.2764V57.3018H23.1721V45.2764H22.5721ZM24.1253 44.0013C23.3214 43.8416 22.5721 44.4567 22.5721 45.2764H23.1721C23.1721 44.835 23.5755 44.5038 24.0084 44.5898L24.1253 44.0013ZM36.5602 46.4709L24.1253 44.0013L24.0084 44.5898L36.4433 47.0594L36.5602 46.4709ZM38.8036 49.2037C38.8036 47.8742 37.8643 46.7299 36.5602 46.4709L36.4433 47.0594C37.4666 47.2626 38.2036 48.1605 38.2036 49.2037H38.8036ZM40.9898 51.3898C39.7824 51.3898 38.8036 50.4111 38.8036 49.2037H38.2036C38.2036 50.7424 39.451 51.9898 40.9898 51.9898V51.3898ZM42.9862 51.3898H40.9898V51.9898H42.9862V51.3898ZM43.4293 45.8827V48.2051H44.0293V45.8827H43.4293ZM41.9872 44.4406C42.7837 44.4406 43.4293 45.0863 43.4293 45.8827H44.0293C44.0293 44.7549 43.115 43.8406 41.9872 43.8406V44.4406ZM40.5451 45.8827C40.5451 45.0863 41.1908 44.4406 41.9872 44.4406V43.8406C40.8594 43.8406 39.9451 44.7549 39.9451 45.8827H40.5451ZM40.5451 48.2051V45.8827H39.9451V48.2051H40.5451ZM41.9872 49.6472C41.1908 49.6472 40.5451 49.0016 40.5451 48.2051H39.9451C39.9451 49.3329 40.8594 50.2472 41.9872 50.2472V49.6472ZM43.4293 48.2051C43.4293 49.0016 42.7837 49.6472 41.9872 49.6472V50.2472C43.115 50.2472 44.0293 49.3329 44.0293 48.2051H43.4293Z" fill="#C4EAFF" mask="url(#path-3-inside-1_245_613)"/>
<defs>
<radialGradient id="paint0_radial_245_613" cx="0" cy="0" r="1" gradientUnits="userSpaceOnUse" gradientTransform="translate(42.0625 41.1886) rotate(90) scale(35.5002 31.5884)">
<stop stop-color="#5FC5FF"/>
<stop offset="0.879366" stop-color="#9EDCFF"/>
</radialGradient>
</defs>
</svg>
